<?xml version="1.0" standalone="no"?>
<!DOCTYPE svg PUBLIC "-//W3C//DTD SVG 20010904//EN"
 "http://www.w3.org/TR/2001/REC-SVG-20010904/DTD/svg10.dtd">
<svg version="1.0" xmlns="http://www.w3.org/2000/svg"
 width="32.000000pt" height="32.000000pt" viewBox="0 0 32.000000 32.000000"
 preserveAspectRatio="xMidYMid meet">

<g transform="translate(0.000000,32.000000) scale(0.100000,-0.100000)"
fill="#000000" stroke="none">
<path d="M99 212 c102 -110 103 -113 98 -152 -3 -27 -2 -38 6 -33 25 15 68 10
78 -9 9 -16 13 -17 25 -7 14 11 13 15 -6 29 -19 14 -21 21 -12 52 9 34 9 35
-17 30 -14 -3 -20 -7 -13 -9 20 -7 14 -23 -9 -23 -15 0 -19 5 -15 15 3 8 0 15
-7 15 -7 0 -31 18 -52 41 -22 22 -71 68 -110 102 -67 59 -65 57 34 -51z m126
-131 c3 -5 2 -12 -3 -15 -5 -3 -9 1 -9 9 0 17 3 19 12 6z"/>
</g>
</svg>
