<?xml version="1.0" standalone="no"?>
<!DOCTYPE svg PUBLIC "-//W3C//DTD SVG 20010904//EN"
 "http://www.w3.org/TR/2001/REC-SVG-20010904/DTD/svg10.dtd">
<svg version="1.0" xmlns="http://www.w3.org/2000/svg"
 width="32.000000pt" height="32.000000pt" viewBox="0 0 32.000000 32.000000"
 preserveAspectRatio="xMidYMid meet">

<g transform="translate(0.000000,32.000000) scale(0.100000,-0.100000)"
fill="#000000" stroke="none">
<path d="M245 120 c-5 -16 -12 -19 -27 -14 -14 4 -18 3 -13 -6 4 -6 -1 -18
-11 -26 -18 -14 -16 -15 17 -9 32 5 40 2 63 -26 15 -17 29 -29 33 -26 3 4 -9
18 -26 33 -27 23 -31 31 -25 60 7 37 -1 46 -11 14z"/>
</g>
</svg>
